<svg width="800" height="198" viewBox="0 0 800 198" fill="none" xmlns="http://www.w3.org/2000/svg">
<path fill-rule="evenodd" clip-rule="evenodd" d="M98.6543 0C153.139 0 197.309 44.1692 197.309 98.6543C197.308 153.139 153.139 197.309 98.6543 197.309C44.1694 197.308 0.000126564 153.139 0 98.6543C0 44.1692 44.1693 0.000148456 98.6543 0ZM98.3145 32.8506C97.2283 32.8506 96.1421 33.1313 95.167 33.6904L43.1699 63.71C41.2219 64.8334 40.0274 66.9076 40.0273 69.1494V129.231C40.0275 131.474 41.2221 133.547 43.1699 134.67L95.1836 164.714C97.1279 165.834 99.5259 165.834 101.468 164.714L153.473 134.67C155.411 133.547 156.608 131.473 156.608 129.231V69.1494C156.608 66.9076 155.411 64.8334 153.461 63.71L101.463 33.6904C100.488 33.1312 99.4008 32.8506 98.3145 32.8506Z" fill="#5D5AC0"/>
<path d="M348.45 70.349H287.444V86.8373H344.052V112.668H287.444V128.607H367.137V128.608H399.013V128.561C399.558 128.591 400.109 128.608 400.661 128.608H416.051C432.137 128.607 445.179 115.565 445.18 99.4789C445.18 83.3918 432.138 70.3507 416.051 70.35H400.662C400.109 70.35 399.558 70.3674 399.013 70.3978V70.349H395.165V112.669H361.09L361.091 42.8695V41.7699H423.745C441.585 41.7703 457.534 49.8667 468.12 62.5844C460.304 72.2288 455.621 84.5171 455.621 97.8978V101.058C455.621 114.439 460.305 126.726 468.121 136.37C457.535 149.089 441.586 157.187 423.745 157.187H258.864V41.7699H348.45V70.349ZM688.104 157.187H598.519V128.608H659.524V112.12H602.916V86.2875H659.524V70.35H581.481V70.349H547.954V70.3959C547.409 70.3655 546.859 70.349 546.307 70.349H530.917C514.83 70.3494 501.788 83.3909 501.788 99.4779C501.788 115.565 514.83 128.606 530.917 128.607H546.307C546.859 128.607 547.409 128.589 547.954 128.559V128.607H551.802V86.2875H585.877V157.187H523.223C491.352 157.187 465.515 131.349 465.515 99.4779C465.515 67.6068 491.352 41.7702 523.223 41.7699H688.104V157.187Z" fill="black"/>
<path d="M744.167 102.47V142.35C744.167 144.692 743.751 146.825 742.918 148.75C742.138 150.675 740.993 152.314 739.484 153.667C738.028 155.02 736.259 156.06 734.177 156.788C732.096 157.517 729.781 157.881 727.231 157.881C722.445 157.881 718.621 156.684 715.759 154.291C712.949 151.898 711.128 148.594 710.296 144.38L718.569 142.663C719.037 144.9 719.921 146.773 721.222 148.282C722.523 149.791 724.552 150.545 727.31 150.545C729.859 150.545 731.836 149.791 733.241 148.282C734.698 146.721 735.426 144.354 735.426 141.18V109.806H716.461V102.47H744.167ZM775.432 157.881C770.697 157.881 766.717 157.049 763.491 155.384C760.266 153.719 757.612 151.508 755.531 148.75L761.15 143.365C763.231 145.862 765.442 147.709 767.784 148.906C770.125 150.051 772.779 150.623 775.744 150.623C779.178 150.623 781.806 149.843 783.627 148.282C785.5 146.721 786.436 144.484 786.436 141.57C786.436 139.229 785.76 137.434 784.407 136.185C783.054 134.884 780.739 133.948 777.461 133.375L771.53 132.439C768.928 132.023 766.743 131.346 764.974 130.41C763.205 129.421 761.774 128.277 760.682 126.976C759.589 125.623 758.783 124.14 758.262 122.527C757.794 120.862 757.56 119.119 757.56 117.298C757.56 112.147 759.225 108.245 762.555 105.592C765.885 102.886 770.463 101.534 776.29 101.534C780.609 101.534 784.277 102.236 787.295 103.641C790.364 104.993 792.836 106.919 794.709 109.416L789.246 114.879C787.737 113.058 785.942 111.601 783.861 110.509C781.832 109.364 779.308 108.792 776.29 108.792C773.065 108.792 770.593 109.494 768.876 110.899C767.211 112.252 766.379 114.255 766.379 116.908C766.379 119.145 767.029 120.914 768.33 122.215C769.683 123.464 772.05 124.374 775.432 124.947L781.207 125.961C786.098 126.846 789.662 128.641 791.899 131.346C794.136 134 795.255 137.252 795.255 141.102C795.255 143.599 794.813 145.888 793.928 147.97C793.096 150.051 791.821 151.82 790.104 153.277C788.439 154.733 786.358 155.878 783.861 156.71C781.415 157.491 778.606 157.881 775.432 157.881Z" fill="black" fill-opacity="0.4"/>
</svg>
